<svg width="229" height="66" viewBox="0 0 229 66" fill="none" xmlns="http://www.w3.org/2000/svg">
<path d="M12.312 45.88C8.536 45.368 5.672 43.976 3.72 41.704C1.8 39.4 0.84 36.68 0.84 33.544C0.84 32.072 1.032 30.648 1.416 29.272C1.8 27.864 2.456 26.408 3.384 24.904C4.312 23.4 5.48 21.992 6.888 20.68C8.328 19.368 10.168 18.088 12.408 16.84C14.648 15.56 17.192 14.44 20.04 13.48C21.48 13 22.344 12.76 22.632 12.76C23.048 12.76 23.256 12.888 23.256 13.144C23.256 13.24 23.128 13.32 22.872 13.384C22.616 13.416 22.184 13.512 21.576 13.672C20.968 13.8 20.376 13.976 19.8 14.2C17.688 15 15.544 16.312 13.368 18.136C10.68 20.344 8.648 22.808 7.272 25.528C5.896 28.216 5.208 30.84 5.208 33.4C5.208 35.8 5.88 37.944 7.224 39.832C8.6 41.72 10.568 43.048 13.128 43.816C13.736 42.408 14.52 40.792 15.48 38.968C16.44 37.144 17.608 35.016 18.984 32.584C20.36 30.12 21.384 28.264 22.056 27.016C22.504 26.184 23.208 24.888 24.168 23.128C25.128 21.368 25.832 20.056 26.28 19.192C26.76 18.296 27.336 17.208 28.008 15.928C28.68 14.648 29.224 13.544 29.64 12.616C30.088 11.656 30.456 10.76 30.744 9.928C29.464 9.672 27.992 9.544 26.328 9.544C23.512 9.544 20.952 10.296 18.648 11.8C18.104 12.12 17.752 12.28 17.592 12.28C17.208 12.28 17.016 12.136 17.016 11.848C17.016 11.016 18.744 10.2 22.2 9.4C25.688 8.6 28.456 8.2 30.504 8.2H31.32C31.576 7.24 31.704 6.424 31.704 5.752C31.704 4.792 31.432 4.024 30.888 3.448C30.344 2.872 29.704 2.584 28.968 2.584C27.848 2.584 26.648 3.064 25.368 4.024C24.984 4.312 24.696 4.456 24.504 4.456C24.472 4.456 24.408 4.424 24.312 4.36C24.248 4.296 24.216 4.232 24.216 4.168C24.216 4.104 24.456 3.88 24.936 3.496C25.96 2.696 27.064 2.072 28.248 1.624C29.432 1.176 30.408 0.951998 31.176 0.951998C32.584 0.951998 33.72 1.4 34.584 2.296C35.448 3.16 35.88 4.152 35.88 5.272C35.88 6.104 35.624 7.24 35.112 8.68C38.728 9.448 41.496 11.112 43.416 13.672C45.368 16.2 46.344 19.336 46.344 23.08C46.344 27.432 44.408 31.624 40.536 35.656C36.664 39.656 31.752 42.6 25.8 44.488C22.76 45.48 19.576 46.024 16.248 46.12C16.024 46.92 15.912 47.672 15.912 48.376C15.912 49.336 16.184 50.104 16.728 50.68C17.272 51.256 17.896 51.544 18.6 51.544C19.656 51.544 20.856 51.048 22.2 50.056C22.584 49.768 22.872 49.624 23.064 49.624C23.096 49.624 23.144 49.656 23.208 49.72C23.304 49.816 23.352 49.88 23.352 49.912C23.352 49.976 23.112 50.2 22.632 50.584C21.608 51.384 20.504 52.008 19.32 52.456C18.136 52.936 17.176 53.176 16.44 53.176C15.032 53.176 13.88 52.728 12.984 51.832C12.12 50.968 11.688 49.976 11.688 48.856C11.688 48.12 11.896 47.128 12.312 45.88ZM25.416 43.384C30.248 41.944 34.184 39.416 37.224 35.8C40.296 32.152 41.832 28.264 41.832 24.136C41.832 17.384 39.288 12.968 34.2 10.888C33.624 12.168 32.872 13.656 31.944 15.352C31.048 17.016 29.928 19.048 28.584 21.448C27.24 23.816 26.184 25.704 25.416 27.112C25.16 27.624 24.616 28.632 23.784 30.136C22.984 31.608 22.408 32.68 22.056 33.352C21.704 33.992 21.192 34.952 20.52 36.232C19.848 37.512 19.32 38.536 18.936 39.304C18.584 40.072 18.2 40.936 17.784 41.896C17.368 42.856 17.032 43.704 16.776 44.44C17.032 44.472 17.432 44.488 17.976 44.488C20.344 44.488 22.824 44.12 25.416 43.384ZM74.8856 44.296C73.0936 45.8 71.0776 47.048 68.8376 48.04C66.6296 49.032 64.7896 49.528 63.3176 49.528C62.3896 49.528 61.6536 49.272 61.1096 48.76C60.5656 48.248 60.2936 47.608 60.2936 46.84C60.2936 45.848 60.5176 44.776 60.9656 43.624C60.9336 43.656 60.7256 43.848 60.3416 44.2C59.9896 44.552 59.7336 44.808 59.5736 44.968C59.4456 45.096 59.1576 45.352 58.7096 45.736C58.2936 46.088 57.9576 46.36 57.7016 46.552C57.4456 46.744 57.0776 47.016 56.5976 47.368C56.1496 47.688 55.7496 47.944 55.3976 48.136C55.0456 48.328 54.6136 48.552 54.1016 48.808C53.6216 49.032 53.1576 49.208 52.7096 49.336C52.2936 49.464 51.8296 49.576 51.3176 49.672C50.8056 49.768 50.3096 49.816 49.8296 49.816C48.6136 49.816 47.5256 49.48 46.5656 48.808C45.6056 48.104 45.1256 47.016 45.1256 45.544C45.1256 44.232 45.7496 42.504 46.9976 40.36C48.2776 38.184 49.5416 36.104 50.7896 34.12C52.0696 32.104 52.7096 30.664 52.7096 29.8C52.7096 28.776 52.3896 28.264 51.7496 28.264C51.5256 28.264 51.3016 28.296 51.0776 28.36C50.8536 28.392 50.6616 28.44 50.5016 28.504C50.3416 28.568 50.1336 28.68 49.8776 28.84C49.6216 28.968 49.4456 29.064 49.3496 29.128C49.2536 29.192 49.0616 29.32 48.7736 29.512C48.4856 29.704 48.2936 29.832 48.1976 29.896C47.9096 30.088 47.7496 30.184 47.7176 30.184C47.5896 30.184 47.5256 30.12 47.5256 29.992C47.5256 29.864 47.6216 29.736 47.8136 29.608C50.4056 27.816 52.3256 26.92 53.5736 26.92C55.4296 26.92 56.3576 27.816 56.3576 29.608C56.3576 30.408 55.7336 31.832 54.4856 33.88C53.2696 35.928 52.0376 38.008 50.7896 40.12C49.5736 42.232 48.9656 43.816 48.9656 44.872C48.9656 46.792 49.9896 47.752 52.0376 47.752C54.5016 47.752 57.7336 45.816 61.7336 41.944C63.7176 37.752 65.7496 33.928 67.8296 30.472C68.9496 28.584 69.7496 27.64 70.2296 27.64C70.6136 27.64 71.0776 27.784 71.6216 28.072C72.1976 28.36 72.4856 28.728 72.4856 29.176C72.4856 29.592 72.1496 30.264 71.4776 31.192C70.8056 32.088 69.9576 33.192 68.9336 34.504C67.9416 35.784 67.1896 36.888 66.6776 37.816C66.6136 37.944 66.4376 38.264 66.1496 38.776C65.8616 39.256 65.6536 39.608 65.5256 39.832C65.4296 40.024 65.2536 40.36 64.9976 40.84C64.7736 41.288 64.5976 41.672 64.4696 41.992C64.3736 42.312 64.2616 42.68 64.1336 43.096C64.0056 43.512 63.9096 43.928 63.8456 44.344C63.7816 44.728 63.7496 45.112 63.7496 45.496C63.7496 46.168 63.9416 46.728 64.3256 47.176C64.7416 47.592 65.3176 47.8 66.0536 47.8C67.0776 47.8 68.4056 47.416 70.0376 46.648C71.6696 45.88 73.1576 44.936 74.5016 43.816C76.4856 42.28 78.6616 40.04 81.0296 37.096C81.1576 36.904 81.2856 36.808 81.4136 36.808C81.5416 36.808 81.6056 36.872 81.6056 37C81.6056 37.064 81.5736 37.16 81.5096 37.288C79.3336 40.232 77.1256 42.568 74.8856 44.296ZM87.6244 29.272C87.6244 30.488 87.1604 31.96 86.2324 33.688C86.2644 33.656 86.7604 33.208 87.7204 32.344C88.6804 31.448 89.4644 30.744 90.0724 30.232C90.7124 29.72 91.4964 29.192 92.4244 28.648C93.3524 28.104 94.1364 27.832 94.7764 27.832C95.3204 27.832 95.7524 28.04 96.0724 28.456C96.3924 28.872 96.5524 29.416 96.5524 30.088C96.5524 30.632 96.4564 31.256 96.2644 31.96C96.1044 32.632 95.9444 33.176 95.7844 33.592L95.5444 34.216C95.7364 34.024 95.9764 33.784 96.2644 33.496C96.5844 33.176 97.1924 32.632 98.0884 31.864C99.0164 31.096 99.9124 30.424 100.776 29.848C101.64 29.24 102.616 28.696 103.704 28.216C104.824 27.736 105.816 27.496 106.68 27.496C107.48 27.496 108.152 27.72 108.696 28.168C109.24 28.616 109.512 29.192 109.512 29.896C109.512 30.728 108.952 32.024 107.832 33.784C106.712 35.512 105.48 37.32 104.136 39.208C102.824 41.064 101.608 43.448 100.488 46.36C99.3684 49.24 98.8084 52.104 98.8084 54.952C98.8084 57.384 99.4644 59.528 100.776 61.384C102.088 63.272 103.992 64.216 106.488 64.216C108.952 64.216 111.656 63.16 114.6 61.048C117.544 58.936 119.832 56.68 121.464 54.28C121.592 54.088 121.72 53.992 121.848 53.992C121.976 53.992 122.04 54.056 122.04 54.184C122.04 54.248 122.008 54.344 121.944 54.472C119.704 57.512 116.984 60.12 113.784 62.296C110.616 64.504 107.608 65.608 104.76 65.608C102.104 65.608 99.8964 64.664 98.1364 62.776C96.4084 60.888 95.5444 58.472 95.5444 55.528C95.5444 52.936 96.0244 50.248 96.9844 47.464C97.9444 44.68 99.0004 42.36 100.152 40.504C101.304 38.616 102.36 36.808 103.32 35.08C104.28 33.32 104.76 32.04 104.76 31.24C104.76 30.408 104.376 29.992 103.608 29.992C101.496 29.992 98.4564 32.056 94.4884 36.184C94.4564 36.248 94.3284 36.392 94.1044 36.616C93.9124 36.808 93.7844 36.936 93.7204 37C93.6564 37.064 93.5284 37.192 93.3364 37.384C93.1444 37.544 93.0004 37.672 92.9044 37.768C92.8084 37.832 92.6644 37.944 92.4724 38.104C92.3124 38.232 92.1524 38.328 91.9924 38.392C91.8644 38.424 91.7044 38.488 91.5124 38.584C91.3524 38.648 91.1764 38.696 90.9844 38.728C90.8244 38.76 90.6484 38.776 90.4564 38.776C90.3604 38.776 90.3124 38.728 90.3124 38.632C90.3124 38.44 90.4404 38.264 90.6964 38.104C90.9524 37.912 91.1124 37.72 91.1764 37.528C92.4884 34.648 93.1444 32.696 93.1444 31.672C93.1444 30.776 92.7764 30.328 92.0404 30.328C91.2084 30.328 90.1844 30.856 88.9684 31.912C87.7844 32.936 86.6484 34.184 85.5604 35.656C83.9924 37.704 81.5924 42.008 78.3604 48.568C78.2644 48.792 78.0564 48.936 77.7364 49C77.4484 49.032 77.0804 49.048 76.6324 49.048C76.1844 49.048 75.8164 49.096 75.5284 49.192L73.9444 49.768C73.7844 49.768 73.7044 49.688 73.7044 49.528C73.7044 49.496 73.7204 49.448 73.7524 49.384C73.7844 49.352 73.8324 49.288 73.8964 49.192C73.9924 49.128 74.0724 49.048 74.1364 48.952C75.5444 46.904 77.8484 42.952 81.0484 37.096C82.9684 33.672 83.9284 31.24 83.9284 29.8C83.9284 28.776 83.6084 28.264 82.9684 28.264C82.2324 28.264 81.0484 28.808 79.4164 29.896C79.1284 30.088 78.9684 30.184 78.9364 30.184C78.8084 30.184 78.7444 30.12 78.7444 29.992C78.7444 29.864 78.8404 29.736 79.0324 29.608C81.4324 27.816 83.3524 26.92 84.7924 26.92C85.7204 26.92 86.4244 27.144 86.9044 27.592C87.3844 28.008 87.6244 28.568 87.6244 29.272ZM142.104 44.296C140.312 45.8 138.296 47.048 136.056 48.04C133.848 49.032 132.008 49.528 130.536 49.528C129.608 49.528 128.872 49.272 128.328 48.76C127.784 48.248 127.512 47.608 127.512 46.84C127.512 45.848 127.736 44.776 128.184 43.624C128.152 43.656 127.944 43.848 127.56 44.2C127.208 44.552 126.952 44.808 126.792 44.968C126.664 45.096 126.376 45.352 125.928 45.736C125.512 46.088 125.176 46.36 124.92 46.552C124.664 46.744 124.296 47.016 123.816 47.368C123.368 47.688 122.968 47.944 122.616 48.136C122.264 48.328 121.832 48.552 121.32 48.808C120.84 49.032 120.376 49.208 119.928 49.336C119.512 49.464 119.048 49.576 118.536 49.672C118.024 49.768 117.528 49.816 117.048 49.816C115.832 49.816 114.744 49.48 113.784 48.808C112.824 48.104 112.344 47.016 112.344 45.544C112.344 44.232 112.968 42.504 114.216 40.36C115.496 38.184 116.76 36.104 118.008 34.12C119.288 32.104 119.928 30.664 119.928 29.8C119.928 28.776 119.608 28.264 118.968 28.264C118.744 28.264 118.52 28.296 118.296 28.36C118.072 28.392 117.88 28.44 117.72 28.504C117.56 28.568 117.352 28.68 117.096 28.84C116.84 28.968 116.664 29.064 116.568 29.128C116.472 29.192 116.28 29.32 115.992 29.512C115.704 29.704 115.512 29.832 115.416 29.896C115.128 30.088 114.968 30.184 114.936 30.184C114.808 30.184 114.744 30.12 114.744 29.992C114.744 29.864 114.84 29.736 115.032 29.608C117.624 27.816 119.544 26.92 120.792 26.92C122.648 26.92 123.576 27.816 123.576 29.608C123.576 30.408 122.952 31.832 121.704 33.88C120.488 35.928 119.256 38.008 118.008 40.12C116.792 42.232 116.184 43.816 116.184 44.872C116.184 46.792 117.208 47.752 119.256 47.752C121.72 47.752 124.952 45.816 128.952 41.944C130.936 37.752 132.968 33.928 135.048 30.472C136.168 28.584 136.968 27.64 137.448 27.64C137.832 27.64 138.296 27.784 138.84 28.072C139.416 28.36 139.704 28.728 139.704 29.176C139.704 29.592 139.368 30.264 138.696 31.192C138.024 32.088 137.176 33.192 136.152 34.504C135.16 35.784 134.408 36.888 133.896 37.816C133.832 37.944 133.656 38.264 133.368 38.776C133.08 39.256 132.872 39.608 132.744 39.832C132.648 40.024 132.472 40.36 132.216 40.84C131.992 41.288 131.816 41.672 131.688 41.992C131.592 42.312 131.48 42.68 131.352 43.096C131.224 43.512 131.128 43.928 131.064 44.344C131 44.728 130.968 45.112 130.968 45.496C130.968 46.168 131.16 46.728 131.544 47.176C131.96 47.592 132.536 47.8 133.272 47.8C134.296 47.8 135.624 47.416 137.256 46.648C138.888 45.88 140.376 44.936 141.72 43.816C143.704 42.28 145.88 40.04 148.248 37.096C148.376 36.904 148.504 36.808 148.632 36.808C148.76 36.808 148.824 36.872 148.824 37C148.824 37.064 148.792 37.16 148.728 37.288C146.552 40.232 144.344 42.568 142.104 44.296ZM152.683 43.192C150.571 45.432 148.683 47 147.019 47.896C145.387 48.76 144.107 49.192 143.179 49.192C141.067 49.192 140.011 48.392 140.011 46.792C140.011 46.28 140.091 45.848 140.251 45.496C140.411 45.112 140.571 44.84 140.731 44.68C140.891 44.52 141.179 44.296 141.595 44.008C142.011 43.72 142.283 43.512 142.411 43.384C142.795 43.064 143.195 42.712 143.611 42.328C144.027 41.944 144.315 41.688 144.475 41.56C144.635 41.4 144.763 41.32 144.859 41.32C144.955 41.32 145.003 41.368 145.003 41.464C145.003 41.592 144.875 41.784 144.619 42.04C143.467 43.064 142.891 44.136 142.891 45.256C142.891 45.896 143.083 46.408 143.467 46.792C143.851 47.176 144.347 47.368 144.955 47.368C145.787 47.368 146.939 46.856 148.411 45.832C149.915 44.808 151.483 43.432 153.115 41.704C156.251 38.376 158.715 35.416 160.507 32.824C160.795 32.408 161.195 31.704 161.707 30.712C162.251 29.688 162.715 29 163.099 28.648C163.323 28.424 164.059 28.072 165.307 27.592C165.499 27.528 165.707 27.432 165.931 27.304C166.187 27.176 166.395 27.08 166.555 27.016C166.715 26.92 166.827 26.872 166.891 26.872C167.083 26.872 167.179 26.968 167.179 27.16C167.179 27.288 167.003 27.592 166.651 28.072C166.331 28.552 165.883 29.208 165.307 30.04C164.763 30.84 164.315 31.608 163.963 32.344C163.003 34.264 162.267 35.768 161.755 36.856C161.243 37.944 160.747 39.224 160.267 40.696C159.787 42.168 159.547 43.384 159.547 44.344C159.547 45.336 159.739 46.136 160.123 46.744C160.507 47.32 161.243 47.608 162.331 47.608C164.923 47.608 167.851 46.344 171.115 43.816C173.099 42.28 175.275 40.04 177.643 37.096C177.771 36.904 177.899 36.808 178.027 36.808C178.155 36.808 178.219 36.872 178.219 37C178.219 37.064 178.187 37.16 178.123 37.288C175.947 40.232 173.739 42.568 171.499 44.296C167.275 47.592 163.339 49.24 159.691 49.24C158.379 49.24 157.339 48.872 156.571 48.136C155.835 47.4 155.467 46.456 155.467 45.304C155.467 44.088 155.771 42.776 156.379 41.368C156.987 39.96 158.043 37.896 159.547 35.176C156.155 39.272 153.867 41.944 152.683 43.192ZM185.914 15.784C186.49 15.784 186.97 15.976 187.354 16.36C187.738 16.712 187.93 17.128 187.93 17.608C187.93 18.376 187.626 19.048 187.018 19.624C186.41 20.2 185.754 20.488 185.05 20.488C183.994 20.488 183.466 19.784 183.466 18.376C183.466 17.768 183.706 17.192 184.186 16.648C184.666 16.072 185.242 15.784 185.914 15.784ZM195.274 16.024C196.362 16.024 196.906 16.616 196.906 17.8C196.906 18.568 196.65 19.224 196.138 19.768C195.626 20.28 195.018 20.536 194.314 20.536C193.258 20.536 192.73 19.864 192.73 18.52C192.73 17.944 192.986 17.384 193.498 16.84C194.042 16.296 194.634 16.024 195.274 16.024ZM178.234 36.904C184.57 35.368 187.738 33.064 187.738 29.992C187.738 29.64 187.626 29.336 187.402 29.08C187.21 28.792 186.906 28.648 186.49 28.648C185.146 28.648 183.738 29.432 182.266 31C180.794 32.568 179.45 34.536 178.234 36.904ZM178.858 49.768C177.034 49.768 175.498 49.272 174.25 48.28C173.002 47.288 172.378 45.88 172.378 44.056C172.378 42.36 172.778 40.664 173.578 38.968C174.41 37.24 175.45 35.704 176.698 34.36C177.978 33.016 179.354 31.8 180.826 30.712C182.298 29.624 183.722 28.792 185.098 28.216C186.506 27.64 187.706 27.352 188.698 27.352C189.37 27.352 189.946 27.576 190.426 28.024C190.938 28.44 191.194 29.016 191.194 29.752C191.194 30.04 191.066 30.44 190.81 30.952C190.554 31.432 190.09 32.008 189.418 32.68C188.778 33.352 187.978 34.008 187.018 34.648C186.058 35.288 184.762 35.912 183.13 36.52C181.53 37.128 179.754 37.592 177.802 37.912C176.778 39.96 176.266 41.992 176.266 44.008C176.266 45.48 176.698 46.6 177.562 47.368C178.426 48.136 179.546 48.52 180.922 48.52C182.49 48.52 184.378 48.056 186.586 47.128C188.794 46.2 190.746 45.096 192.442 43.816C194.426 42.28 196.602 40.04 198.97 37.096C199.098 36.904 199.226 36.808 199.354 36.808C199.482 36.808 199.546 36.872 199.546 37C199.546 37.064 199.514 37.16 199.45 37.288C197.274 40.232 195.066 42.568 192.826 44.296C188.346 47.944 183.69 49.768 178.858 49.768ZM205.61 29.752C205.61 30.296 205.354 31.128 204.842 32.248C204.362 33.368 203.834 34.44 203.258 35.464C202.682 36.456 202.058 37.496 201.386 38.584C200.746 39.672 200.378 40.312 200.282 40.504H200.378L201.194 39.688C204.17 36.616 207.354 33.8 210.746 31.24C214.17 28.68 216.746 27.4 218.474 27.4C219.882 27.4 220.586 27.736 220.586 28.408C220.586 28.504 220.554 28.6 220.49 28.696C220.458 28.792 220.378 28.904 220.25 29.032C220.154 29.128 220.058 29.208 219.962 29.272C219.898 29.336 219.754 29.448 219.53 29.608C219.306 29.768 219.146 29.896 219.05 29.992C218.89 30.12 218.73 30.28 218.57 30.472C218.41 30.632 218.282 30.76 218.186 30.856C218.09 30.92 217.994 30.952 217.898 30.952C217.77 30.952 217.706 30.856 217.706 30.664C217.706 30.312 217.178 30.136 216.122 30.136C214.97 30.136 213.754 30.52 212.474 31.288C211.194 32.056 209.354 33.448 206.954 35.464C207.402 36.008 207.738 36.456 207.962 36.808C208.186 37.128 208.458 37.672 208.778 38.44C209.13 39.176 209.418 40.056 209.642 41.08C210.378 44.184 210.938 46.04 211.322 46.648C211.834 47.448 212.618 47.848 213.674 47.848C214.538 47.848 215.802 47.416 217.466 46.552C219.13 45.688 220.554 44.776 221.738 43.816C223.722 42.28 225.898 40.04 228.266 37.096C228.394 36.904 228.522 36.808 228.65 36.808C228.778 36.808 228.842 36.872 228.842 37C228.842 37.064 228.81 37.16 228.746 37.288C226.57 40.232 224.362 42.568 222.122 44.296C220.554 45.608 218.698 46.856 216.554 48.04C214.442 49.192 212.57 49.768 210.938 49.768C210.266 49.768 209.69 49.64 209.21 49.384C208.73 49.128 208.33 48.856 208.01 48.568C207.722 48.248 207.45 47.72 207.194 46.984C206.938 46.216 206.746 45.592 206.618 45.112C206.522 44.6 206.362 43.768 206.138 42.616C205.69 40.568 204.954 39.064 203.93 38.104C202.394 39.512 200.698 41.4 198.842 43.768C197.818 45.496 196.938 47.112 196.202 48.616C196.138 48.744 195.962 48.84 195.674 48.904C195.386 48.936 194.954 48.968 194.378 49C193.802 49.064 193.482 49.096 193.418 49.096C193.13 49.128 192.81 49.224 192.458 49.384C192.138 49.544 191.946 49.624 191.882 49.624C191.754 49.624 191.69 49.56 191.69 49.432C191.69 49.336 191.898 49 192.314 48.424C192.762 47.848 193.594 46.552 194.81 44.536C196.058 42.488 197.45 40.008 198.986 37.096C201.034 33.224 202.058 30.92 202.058 30.184C202.058 28.904 201.674 28.264 200.906 28.264C200.17 28.264 198.986 28.808 197.354 29.896C197.066 30.088 196.906 30.184 196.874 30.184C196.746 30.184 196.682 30.12 196.682 29.992C196.682 29.864 196.778 29.736 196.97 29.608C199.37 27.816 201.29 26.92 202.73 26.92C203.658 26.92 204.362 27.192 204.842 27.736C205.354 28.248 205.61 28.92 205.61 29.752Z" fill="#784518"/>
</svg>
