<svg width="58" height="58" viewBox="0 0 58 58" fill="none" xmlns="http://www.w3.org/2000/svg">
<g clip-path="url(#clip0_38_72)">
<path d="M29 0C13.0089 0 0 13.0089 0 29C0 44.9911 13.0089 58 29 58C44.9911 58 58 44.9911 58 29C58 13.0089 44.9911 0 29 0ZM29 55.5833C14.3429 55.5833 2.41667 43.6571 2.41667 29C2.41667 14.3429 14.3429 2.41667 29 2.41667C43.6571 2.41667 55.5833 14.3429 55.5833 29C55.5833 43.6571 43.6571 55.5833 29 55.5833Z" fill="black"/>
<path d="M16 20L42 37" stroke="black" stroke-width="2" stroke-linecap="round"/>
<path d="M39.7373 17.2769L18.2624 39.7231" stroke="black" stroke-width="2" stroke-linecap="round"/>
</g>
<defs>
<clipPath id="clip0_38_72">
<rect width="58" height="58" fill="white"/>
</clipPath>
</defs>
</svg>
