<svg width="58" height="58" viewBox="0 0 58 58" fill="none" xmlns="http://www.w3.org/2000/svg">
<g clip-path="url(#clip0_38_66)">
<path d="M29 0C13.0089 0 0 13.0089 0 29C0 44.9911 13.0089 58 29 58C44.9911 58 58 44.9911 58 29C58 13.0089 44.9911 0 29 0ZM29 55.5833C14.3429 55.5833 2.41667 43.6571 2.41667 29C2.41667 14.3429 14.3429 2.41667 29 2.41667C43.6571 2.41667 55.5833 14.3429 55.5833 29C55.5833 43.6571 43.6571 55.5833 29 55.5833ZM34.423 14.0553L17.6852 30.7932C15.6286 32.8473 14.5 35.5782 14.5 38.4854V42.2917C14.5 42.9587 15.0413 43.5 15.7083 43.5H19.5146C22.4194 43.5 25.1527 42.369 27.2068 40.3148L43.9447 23.577C45.2158 22.3058 45.9167 20.6142 45.9167 18.8162C45.9167 17.0182 45.2158 15.3289 43.9447 14.0553C41.3999 11.5106 36.9653 11.5106 34.423 14.0553ZM25.4982 38.6038C23.9008 40.2013 21.7766 41.0809 19.5146 41.0809H16.9167V38.483C16.9167 36.221 17.7963 34.0992 19.3937 32.4993L31.7381 20.155L37.8402 26.2571L25.4958 38.6014L25.4982 38.6038ZM42.2361 21.866L39.5536 24.5485L33.4515 18.4464L36.134 15.7639C37.7677 14.1302 40.6048 14.1302 42.2361 15.7639C43.0529 16.5807 43.5 17.6634 43.5 18.8162C43.5 19.9689 43.0505 21.0492 42.2361 21.866Z" fill="black"/>
</g>
<defs>
<clipPath id="clip0_38_66">
<rect width="58" height="58" fill="white"/>
</clipPath>
</defs>
</svg>
